<?xml version="1.0" encoding="iso-8859-1"?>
<!-- Uploaded to: SVG Repo, www.svgrepo.com, Generator: SVG Repo Mixer Tools -->
<svg version="1.1" id="Layer_1" xmlns="http://www.w3.org/2000/svg" xmlns:xlink="http://www.w3.org/1999/xlink"
     viewBox="0 0 512 512" xml:space="preserve">
<path style="fill:#FF9075;" d="M502.865,188.05C473.095,79.648,373.856,0,256,0C114.615,0,0,114.616,0,256
	c0,117.074,78.589,215.794,185.891,246.281L502.865,188.05z"/>
    <path style="fill:#F15D4A;" d="M512,256c0-23.529-3.191-46.309-9.135-67.95l-89.453-89.453L97.809,414.2l88.081,88.081
	C208.171,508.611,231.69,512,256,512C397.384,512,512,397.385,512,256z"/>
    <polygon style="fill:#E5E5E5;" points="185.17,358.32 232.393,311.097 208.781,287.486 153.689,342.579 "/>
    <polygon style="fill:#F2F2F2;" points="216.653,295.356 200.911,279.615 153.689,326.839 161.559,350.449 "/>
    <path style="fill:#B2B2B2;" d="M413.412,98.597l-149.235,79.007L185.17,326.839c63.027,63.027,165.215,63.027,228.242,0
	S476.439,161.624,413.412,98.597z"/>
    <path style="fill:#CCCCCC;" d="M185.17,98.597c-63.027,63.027-63.027,165.215,0,228.242L413.412,98.597
	C350.385,35.57,248.198,35.57,185.17,98.597z"/>
    <path style="fill:#F2F2F2;" d="M299.292,73.587l-42.81,139.13l42.81,139.13c76.84,0,139.13-62.291,139.13-139.13
	S376.131,73.587,299.292,73.587z"/>
    <path style="fill:#FFFFFF;" d="M160.161,212.717c0,76.839,62.29,139.13,139.13,139.13V73.587
	C222.452,73.587,160.161,135.878,160.161,212.717z"/>
    <polygon style="fill:#383838;" points="97.809,414.199 113.549,429.941 169.43,374.061 156.312,345.203 "/>
    <polygon style="fill:#595959;" points="137.948,342.579 82.068,398.458 97.809,414.199 161.559,350.449 "/>
    <rect x="150.431" y="328.194" transform="matrix(-0.7071 0.7071 -0.7071 -0.7071 523.6121 484.0228)"
          style="fill:#FFFFFF;" width="22.261" height="44.521"/>
    <polygon style="fill:#458FDE;" points="321.686,95.848 299.43,95.848 288.29,134.804 327.256,134.804 "/>
    <g>
	<polygon style="fill:#6FAEE8;" points="277.173,95.848 299.43,95.848 299.43,134.804 271.604,134.804 	"/>
        <polygon style="fill:#6FAEE8;" points="263.973,137.85 232.488,114.243 201.012,145.717 224.621,177.202 	"/>
        <polygon style="fill:#6FAEE8;" points="182.422,190.323 182.422,234.835 221.379,240.405 221.379,184.753 	"/>
        <polygon style="fill:#6FAEE8;" points="224.425,248.036 200.816,279.521 232.292,310.997 263.777,287.388 	"/>
</g>
    <polygon style="fill:#458FDE;" points="321.409,329.587 299.153,329.587 288.013,290.63 326.979,290.63 "/>
    <polygon style="fill:#6FAEE8;" points="276.896,329.587 299.153,329.587 299.153,290.63 271.327,290.63 "/>
    <g>
	<polygon style="fill:#458FDE;" points="373.963,248.232 334.611,287.584 366.096,311.192 397.57,279.717 	"/>
        <polygon style="fill:#458FDE;" points="377.205,185.03 377.205,240.682 416.161,235.113 416.161,190.6 	"/>
        <polygon style="fill:#458FDE;" points="366.291,114.439 334.807,138.046 374.158,177.398 397.766,145.913 	"/>
</g>
    <path style="fill:#4D68B5;" d="M299.43,123.674l-50.328,89.043l50.328,89.043c49.178,0,89.043-39.866,89.043-89.043
	S348.607,123.674,299.43,123.674z"/>
    <path style="fill:#458FDE;" d="M210.386,212.717c0,49.178,39.866,89.043,89.043,89.043V123.674
	C250.252,123.674,210.386,163.539,210.386,212.717z"/>
    <path style="fill:#243870;" d="M299.43,162.63l-28.31,50.087l28.31,50.087c27.662,0,50.087-22.424,50.087-50.087
	S327.092,162.63,299.43,162.63z"/>
    <path style="fill:#3D4E9C;" d="M249.343,212.717c0,27.662,22.424,50.087,50.087,50.087V162.63
	C271.767,162.63,249.343,185.055,249.343,212.717z"/>
    <path style="fill:#DDEFFB;" d="M299.43,184.891l-15.727,27.826l15.727,27.826c15.368,0,27.826-12.458,27.826-27.826
	S314.798,184.891,299.43,184.891z"/>
    <path style="fill:#FFFFFF;" d="M271.604,212.717c0,15.368,12.458,27.826,27.826,27.826v-55.652
	C284.062,184.891,271.604,197.349,271.604,212.717z"/>
</svg>